<svg width="2668" height="2652" viewBox="0 0 2668 2652" fill="none" xmlns="http://www.w3.org/2000/svg">
<rect width="2668" height="2652" fill="black"/>
<path d="M1404 1388H1916V2144H2056V1388H2568V2556H1404V1388Z" fill="#00E2B8"/>
<path fill-rule="evenodd" clip-rule="evenodd" d="M76 1388H1244L1264 2556H744V2072H608V2556H76V1388ZM744 1660H608V1780H744V1660Z" fill="#00E2B8"/>
<path d="M76 104H1244V400H700V544H1244L1264 1252H76V948H700V816H76V104Z" fill="#00E2B8"/>
<path d="M1904 107.651L1916 976H2064V107.651L2568 107.651V1252L1412 1255.65L1404 107.651H1904Z" fill="#00E2B8"/>
<path d="M1404 1388H1916V2144H2056V1388H2568V2556H1404V1388Z" stroke="#00E2B8"/>
<path fill-rule="evenodd" clip-rule="evenodd" d="M76 1388H1244L1264 2556H744V2072H608V2556H76V1388ZM744 1660H608V1780H744V1660Z" stroke="#00E2B8"/>
<path d="M76 104H1244V400H700V544H1244L1264 1252H76V948H700V816H76V104Z" stroke="#00E2B8"/>
<path d="M1904 107.651L1916 976H2064V107.651L2568 107.651V1252L1412 1255.65L1404 107.651H1904Z" stroke="#00E2B8"/>
</svg>
